<?xml version="1.0" encoding="UTF-8"?>
<svg id="Layer_1" data-name="Layer 1" xmlns="http://www.w3.org/2000/svg" viewBox="0 0 595.28 140.66">
  <defs>
    <style>
      .cls-1 {
        fill: #f66531;
      }
    </style>
  </defs>
  <g>
    <path class="cls-1" d="M.21,56.47C.33,40.71.24,17.84.01,2.48-.14.51,1.16.59,2.86.6c4.16-.01,9.1,0,13.17,0,2.35.07,2.82-.18,2.89.88.02,1.71,0,7.03,0,13.68,0,15.21-.01,33.86,0,39.52-.14,7.52-.06,15.63,4.12,22.02,7.3,11.55,25.01,12.47,35.42,4.49,5.18-3.84,7.23-10.67,7.57-16.84,0-4.75.01-35.85.02-46.93-.64-6.72,2.34-14.83,9.64-16.65,2.39-.67,6.07-1.22,8.15-.26.23.21.29.48.29.78,0,2.16,0,8.19,0,15.77,0,10.7-.02,24.48-.03,34.86-.12,8.51.22,12.26-.17,15.87-1.11,8.82-4.25,17.87-10.61,24.32-14.33,14.01-38.48,15.06-55.53,5.71C3.03,89.84-.75,72.16.21,56.58v-.11Z"/>
    <g>
      <path class="cls-1" d="M114.91,101.39c-10.46-3.94-18.09-13.48-20.27-24.32-1.15-4.69-.67-9.64-.74-14.45.01-12.9,6.73-25.71,18.13-32.13,9.92-5.51,22.92-6.3,32.91-.48,1.89.89,4.57,4.42,6.1,4.42,1.9-.75,1.16-3.93,1.22-5.66-.03-6.12-.05-21.38-.04-26.58-.13-1.83,1.07-1.8,2.6-1.81,2.73-.01,8.32-.02,11.68-.01,1.71-.04,3.65.3,3.68,2.37.23,2.96-.64,6.62-.73,9.46.11,14.23-.27,75.78.39,88.82-.1,1.4-1.5,1.58-2.68,1.55-3.02.02-8.87.02-11.89,0-.63,0-1.35-.05-1.86-.25-.64-.26-.85-.88-.95-1.53-.24-1.56.14-4.73-.41-5.99-.18-.51-.59-.84-1.12-.59-2,1.14-3.73,3.66-5.78,4.92-8.83,5.8-20.26,5.93-30.06,2.32l-.16-.06ZM147.92,81.47c1.91-2.61,3.48-5.8,3.94-8.88.25-2.74.07-5.71.12-8.57-.07-3.63.43-7.79-1.16-10.79-1.81-4.48-5.16-8.29-9.67-10.13-4.45-1.94-9.78-1.98-14.46-.7-8.9,2.07-14.14,11-14.19,19.77-.11,3.72-.25,7.53.61,11.18,1.57,6.5,6.11,12.77,12.74,14.53,7.85,1.96,16.98.69,21.96-6.26l.1-.13Z"/>
      <path class="cls-1" d="M235.46,102.3c-.97-5.76-.05-37.32-.37-44.73-.12-8.97-6.75-16.79-16.19-16.04-9.22.21-16.74,5.81-17.56,15.18-.48,11.72-.04,39.61-.25,44.97-.25,1.57-4.93.44-7.38.75-2.86-.01-6.02-.03-8.08-.03-2.33-.09-2.95.17-3.07-.82,0-3.7-.04-10.73-.01-15.76.1-32.84.27-48.48,0-79.64.28-4.91-1.47-6.12,3.98-5.77,3.65,0,9.79-.05,13.38.02,1.2.01,1.24.67,1.23,1.62-.01,5.42.06,24.56-.02,30.32-.5,2.48-.01,5.85,2.88,2.51,12.51-15.5,42.18-10.14,47.14,9.7,2.35,6.53,1.97,11.33,1.94,18.46.14,11.81-.35,23.55.2,33.93.27,2.26.57,5.74-2.7,5.45-4.36-.1-11.09.29-15.08-.1l-.04-.02Z"/>
    </g>
  </g>
  <path class="cls-1" d="M264.72,82.76c.93-24.69,31.67-24.48,49.97-25.43,2.12-.28,2.66-1.18,2.44-3.35-.4-3.28-1.57-6.88-4.28-8.97-6.36-5.04-20.39-5.03-25.95,1.23-1.41,1.59-2.25,3.52-4.63,3.78-3.23.26-7.45.03-10.7.06-3.7.1-3.76-1.72-2.78-4.99,3.44-12.68,15.4-18.4,27.77-18.99,16.01-1.46,34.49,4.04,38.18,21.69,1.15,4.92,1.44,8.29,1.32,13.63.02,7.12.02,17.35.03,23.6-.14,4.48.49,7.62.81,11.79.27,3.13,1.07,5.43-3.12,5.32-3.22.06-8.48.16-11.29.19-.88-.02-1.82.02-2.45-.59-1.64-1.47-.32-9.89-4.3-6.2-6.49,7.37-16.82,9.62-26.3,8.86-12.63-.67-25.03-7.33-24.72-21.47v-.17ZM284,85.35c2.44,5.44,9.22,6.32,14.55,6.06,10.62-.41,17.85-6.79,18.82-17.45.1-1.93.86-4.52-1.5-4.74-3.84-.05-7.37.44-11.18.68-8.71.47-24.84,3-20.75,15.3l.06.15Z"/>
  <path class="cls-1" d="M348.43,94.09c-2.58-4.05-2.88-8.95-2.66-13.61.66-11.12,10.59-17.85,20.7-19.98,6.53-1.47,13.59-2.28,20.04-2.9,2.46-.12,5.52-.07,8.08-.23,1.04-.06,2.39-.39,2.86-1.1,1.21-2.17-.03-5.63-1.04-7.83-3.98-7.29-14.03-7.91-21.41-6.35-3.31.68-6.27,2.53-8.3,5.17-1.23,1.42-2.26,2.57-4.28,2.78-3.28.24-7.47.1-10.57.07-1.36-.04-2.94-.45-2.84-2.11.22-3,1.56-5.99,3.03-8.59,3.79-6.71,10.95-10.92,18.4-12.32,16.98-3.62,40.38.34,45.1,19.69,1.09,4.34.68,9.09.84,13.14.1,8.97.2,17.66.57,26.44.1,4.3.56,6.3.85,9.75-.01,1.82,1.05,4.76-1.05,5.63-3.54.68-8.71.27-12.35.48-.79,0-1.67-.06-2.34-.3-3.41-.69-.89-8.99-4.65-7.01-1.81,1.11-3.28,3.09-5.1,4.28-6.6,4.78-15.25,5.81-23.28,5.08-7.68-.67-16.03-3.37-20.5-10.04l-.09-.14ZM376.41,91.44c7.09.26,14.99-1.95,18.83-8.17,1.85-3.22,2.95-6.49,3.09-10.23.04-1.09.16-2.56-.67-3.32-1.84-1.04-4.49-.15-6.63-.18-8.47.92-18.46.26-24.7,6.76-2.2,2.61-2.21,6.58-.99,9.61,1.95,3.92,6.71,5.31,10.9,5.53h.17Z"/>
  <g>
    <path class="cls-1" d="M593.82,33.69c-6.93,16.89-13.47,34.1-20.16,50.97-8.95,21.75-16.33,49.9-44.7,50.32-2.66.18-3.75-1.01-3.75-3.37-.07-2.09-.03-5.23-.03-7.52-.18-4.3,2.15-4.2,5.58-4.9,6.39-1.34,11.52-6.63,14.06-12.48.95-3.08-1.14-5.43-2.07-8.52-1.03-2.6-2.23-5.63-3.34-8.46-7.72-19.72-15.74-39.29-23.5-58.68-.74-2.01-.69-3.13,2.31-2.98,4.27.15,10.61-.31,14.66.19,1.98.55,2.37,2.87,3.07,4.6,1.49,3.95,2.74,7.87,4.23,11.75,3.01,8.27,6.43,16.63,9.61,24.85,1.26,3.63,2.88,7.56,4.21,11.27,1.73,4.89,3.84.76,4.71-1.99,2.7-8.05,5.69-16.2,8.59-24.25,3.03-8.26,5.71-16.15,8.65-24.35.67-1.73,1.23-2.06,3.16-2.09,2.51-.03,5.1,0,7.65,0,2.28.05,6.22-.14,7.73.2,1.59.49.48,2.58-.6,5.27l-.07.16Z"/>
    <path class="cls-1" d="M498.96,102.49c-2.56-.04-6.72.04-8.62-.04-.45-.03-1.18-.13-1.2-.47-.15-10.22.04-71.88-.06-79.11-.02-5.61-.14-17.85-.11-21.03.09-1.63.8-1.32,3.38-1.41,4.73.12,11.68-.29,15.26.09.61,6,.01,69.58.21,89.17,0,4.93,0,8.71,0,10.78-.07,1.16.35,1.69-1.01,1.88-2.52.28-5.17.15-7.71.15h-.15Z"/>
    <path class="cls-1" d="M450.57,64.77c-.85,9.55.17,31.33-.37,36.95-.31.72-1.27.56-2,.64-2.97.05-10.64.11-13.99.15-1.34,0-2.02,0-2.29-.18-.41-6.7-.55-62.93.02-73.99,3.97-.47,11.31-.06,15.69-.18,1.35-.01,2.59.12,2.63,1.79.17,2.21.04,6.22.14,8.4.05,2.61.85,1.96,1.91.51,1.32-1.79,2.73-3.85,4.37-5.45,4.32-4.13,10.43-6.18,16.33-6.42,3.1-.08,5.98-.03,5.78,3.89.03,2.23,0,5.61.02,8.28-.2,2.96.81,4.88-2.3,5.13-15.78-.5-22.54,5.02-25.9,20.38l-.02.1Z"/>
  </g>
  <path class="cls-1" d="M44.92,125.58c-1.63-1.34-4.74-3.96-3.1-4.09,13.06,4.31,26.48,7.71,40.25,6.92,10.11-.51,20.18-2.46,29.57-6.29,5.31-2.18,11.12-5.11,16.44-7.55,2.11-.99,4.13-1.94,6.3-2.76,1.88-.71,4.48-1.62,5.59-1.01,2.57,1.55-3.16,9.35-4.59,11.05-14.68,17.21-39.42,21.56-60.85,17.29-10.85-1.74-21.01-6.49-29.48-13.44l-.13-.11Z"/>
</svg>